<mxfile modified="2023-12-13T11:50:02.770Z" host="app.diagrams.net" agent="Mozilla/5.0 (Windows NT 10.0; Win64; x64) AppleWebKit/537.36 (KHTML, like Gecko) Chrome/120.0.0.0 Safari/537.36" etag="OcFDhCIQwI-T4zEktkHQ" version="22.1.8" type="github">
  <diagram id="Ht1M8jgEwFfnCIfOTk4-" name="Page-1">
    <mxGraphModel dx="1434" dy="772" grid="1" gridSize="10" guides="1" tooltips="1" connect="1" arrows="1" fold="1" page="1" pageScale="1" pageWidth="1169" pageHeight="827" math="0" shadow="0">
      <root>
        <mxCell id="0" />
        <mxCell id="1" parent="0" />
        <mxCell id="dLWC3Q3VziQ37p1mokn--1" value="" style="sketch=0;points=[[0,0,0],[0.25,0,0],[0.5,0,0],[0.75,0,0],[1,0,0],[0,1,0],[0.25,1,0],[0.5,1,0],[0.75,1,0],[1,1,0],[0,0.25,0],[0,0.5,0],[0,0.75,0],[1,0.25,0],[1,0.5,0],[1,0.75,0]];outlineConnect=0;fontColor=#232F3E;fillColor=#C925D1;strokeColor=#ffffff;dashed=0;verticalLabelPosition=bottom;verticalAlign=top;align=center;html=1;fontSize=12;fontStyle=0;aspect=fixed;shape=mxgraph.aws4.resourceIcon;resIcon=mxgraph.aws4.cloud9;" parent="1" vertex="1">
          <mxGeometry x="320" y="318" width="82" height="82" as="geometry" />
        </mxCell>
        <mxCell id="dLWC3Q3VziQ37p1mokn--2" value="" style="sketch=0;points=[[0,0,0],[0.25,0,0],[0.5,0,0],[0.75,0,0],[1,0,0],[0,1,0],[0.25,1,0],[0.5,1,0],[0.75,1,0],[1,1,0],[0,0.25,0],[0,0.5,0],[0,0.75,0],[1,0.25,0],[1,0.5,0],[1,0.75,0]];outlineConnect=0;fontColor=#232F3E;fillColor=#C925D1;strokeColor=#ffffff;dashed=0;verticalLabelPosition=bottom;verticalAlign=top;align=center;html=1;fontSize=12;fontStyle=0;aspect=fixed;shape=mxgraph.aws4.resourceIcon;resIcon=mxgraph.aws4.codebuild;" parent="1" vertex="1">
          <mxGeometry x="640" y="318" width="78" height="78" as="geometry" />
        </mxCell>
        <mxCell id="dLWC3Q3VziQ37p1mokn--4" value="" style="sketch=0;points=[[0,0,0],[0.25,0,0],[0.5,0,0],[0.75,0,0],[1,0,0],[0,1,0],[0.25,1,0],[0.5,1,0],[0.75,1,0],[1,1,0],[0,0.25,0],[0,0.5,0],[0,0.75,0],[1,0.25,0],[1,0.5,0],[1,0.75,0]];outlineConnect=0;fontColor=#232F3E;fillColor=#ED7100;strokeColor=#ffffff;dashed=0;verticalLabelPosition=bottom;verticalAlign=top;align=center;html=1;fontSize=12;fontStyle=0;aspect=fixed;shape=mxgraph.aws4.resourceIcon;resIcon=mxgraph.aws4.elastic_beanstalk;" parent="1" vertex="1">
          <mxGeometry x="800" y="318" width="82" height="82" as="geometry" />
        </mxCell>
        <mxCell id="dLWC3Q3VziQ37p1mokn--5" value="&lt;font style=&quot;font-size: 18px;&quot;&gt;elastic&lt;br&gt;&amp;nbsp;bealstalk&lt;/font&gt;" style="text;html=1;align=center;verticalAlign=middle;resizable=0;points=[];autosize=1;strokeColor=none;fillColor=none;" parent="1" vertex="1">
          <mxGeometry x="791" y="396" width="100" height="60" as="geometry" />
        </mxCell>
        <mxCell id="dLWC3Q3VziQ37p1mokn--6" value="&lt;font style=&quot;font-size: 18px;&quot;&gt;Code &lt;br&gt;pipeline&lt;/font&gt;" style="text;html=1;align=center;verticalAlign=middle;resizable=0;points=[];autosize=1;strokeColor=none;fillColor=none;" parent="1" vertex="1">
          <mxGeometry x="314" y="230" width="90" height="60" as="geometry" />
        </mxCell>
        <mxCell id="dLWC3Q3VziQ37p1mokn--7" value="&lt;font style=&quot;font-size: 18px;&quot;&gt;codebuild&lt;/font&gt;" style="text;html=1;align=center;verticalAlign=middle;resizable=0;points=[];autosize=1;strokeColor=none;fillColor=none;" parent="1" vertex="1">
          <mxGeometry x="625" y="395" width="100" height="40" as="geometry" />
        </mxCell>
        <mxCell id="dLWC3Q3VziQ37p1mokn--10" value="&lt;font style=&quot;font-size: 18px;&quot;&gt;Cloud9&lt;/font&gt;" style="text;html=1;align=center;verticalAlign=middle;resizable=0;points=[];autosize=1;strokeColor=none;fillColor=none;" parent="1" vertex="1">
          <mxGeometry x="315" y="394" width="80" height="40" as="geometry" />
        </mxCell>
        <mxCell id="dLWC3Q3VziQ37p1mokn--11" value="" style="shape=image;verticalLabelPosition=bottom;labelBackgroundColor=default;verticalAlign=top;aspect=fixed;imageAspect=0;image=data:image/jpeg,/9j/4AAQSkZJRgABAQAAAQABAAD/2wCEAAkGBw8QEBUQERIVEBUWFhAQEhYVFRcQFRAQFRUWFhcYFRcYHSggGBolHxUVITEhJTUrLi4uGB8zODMsNygtLisBCgoKDg0OGxAQGy0lHyYuLS0rLS0tLS0tLS8tLS0tLS0vLS0tLS0tLS0tLS0tLS0tLS8tLS0tLS0tLS0tLS0tLf/AABEIAOEA4QMBIgACEQEDEQH/xAAbAAEAAgMBAQAAAAAAAAAAAAAABgcBBAUDAv/EAEAQAAIBAQQGBggDBgcBAAAAAAABAgMEBREhBhIxQVFhInGBkaGxEzJCUmJywdEjM4IHQ5Ki4fAUc5OywtLiJP/EABoBAQEAAwEBAAAAAAAAAAAAAAAFAwQGAgH/xAAzEQABAwICBwgCAgIDAAAAAAAAAQIDBBEFIRIxQVGR0fATIjJhcYGxwaHhFSMzQhRS8f/aAAwDAQACEQMRAD8AvEAAAAAAAAAAAAAAAAAAAAAAAAAAAAAAAAAAAAAAAAAAAAAAAAAAAAAAAAAAwAZMGva7XTox1qklBcW8MXwXFkWvLTPaqFPH4p7OyK+phlqI4vGvPgZ4KWWf/G332cSY4jErC06QWuptqyS4R6CXdmaE7ROXrTlLrk35mi7FGbGrxT9lJmDPVO85E/PIt4yVBCvNZqUl1No3rPf1rp+rWlLlJ66/mxDcUZfNq9cA7Bn27rk64loIyQq79NHsr0180Mu+Lf1JVYrfSrR1qc1Nb8Nq61tRuxVEcvgX228CdPSyweNuW/ZxNsGDJnNcAAAAAAAAAAAAAAAAAAAAAAAAAAAHC0gv6FlWqunUaxUd0VxlwXmemkd8Ky08VnOWKgvOT5IrirVlOTlJuUm8W3tbJ1bWdn3GeL4/ZUw+g7b+yTw/P63ntbrbVrz16km3u4RXBLcjWPSjSlOShBOUnkks22TG59EIpKdd6z26ifRXzP2vLrJUUEk7lt7qW56mGmaml7InLUQ6hZ5zeEIym+EU5eR0aWjlsl+5a63GPg2WPQoQpx1YRUEtiisF4HtgUmYW23ecvtkSX4y+/caieufxYrOpo3bV+5b6nF/U51ostSm8JwlB/EnHzLdPOrSjNaskpJ7U1in2MOwtn+rl98z4zGZEXvtRfTLmVCe1ltVSlJTpycWt68nxRM730SpzTlQ/Dlt1X6kv+pCrVZp0puFSLUltT/vNE2ankgVNL2VCvT1UVS1Ub7ovWZPdHtIo2j8OeEKvDYp848+RIcSn4yaaaeDWaayafIsHRi+v8TDUn+ZBLW+OPvL6lSirO07j9exd5GxCg7L+yPw7U3fr4JAACkSQAAAAAAAAAAAAAAAAAAAAAeVWpGMXKTwSTk3wSWLPUjmm1t9HZ/RrbUer+hZy+i7THNIkbFeuwyQxLLI1ibVIZe94StFaVV7HlBe7BbF/fE1KcHJqMVi20kltbexHySvQe7taUq8llHoQ+d7X2LzOcijdPLZda61OsmkbTQ3TUiWROutZ3NHbkjZoYySdSS6b26vwx5eZ20ZB0jGNY1Gt1HJSSOkcr3LdVAAPZ4AAAByb8ueFqhg+jNY6kuD4PijrA8vY17dFyXQ9Me5jkc1bKhUFooypycJrVlFtNcGet3WyVCrGrDbF7PeW9PrRKtObtWCtMVmsIVOa9lvq2dqIYc3PE6CW3uinXU8zamG6pryVPnn7luWS0RqQjUi8VJKS6me5FNBLbrUp0n7D1o/LL+qfeSs6GCXtI0fvOVqIVhldGuz42AAGUwgAAAAAAAAAAAAAAAAAAgOntfGvGG6MF3ybx8Eie4la6WVFK11GmmuglhnsisfHE0MSVUhtvVOZTwlt6i+5F+k+zjlo3DZfRWanDfqqUvmlm/Mq5onUdNbPs9HUX8P3NDD5I43Oc9barFLFIZZWtbGl81Vfr7JSCPWfS6yS2udP5o/9cTrWa20qqxp1IzXJp963Fpk0b/CqKc/JBLHm9qp6obYMIyZDEAAAAAAal42dVaM6b9qMl24ZeOBU7LiKlvKOFaouFSou6TJGKNTuu9ULmDOXvt9F+Tq6F19S1RW6cZw8NZf7SxUVbo/VULVSk2klLNvJJNNFoqWKyzM2GOvEqblMGLttOi70Q+gAUSUAAAAAAAAAAAAADAAZw760io2bor8Sp7qeUfme7q2mhpRpG6bdCi+nsnJexyXxeXlCW8c3nve/Fkyrr9BdCPXv3Fehw3tESSXVsTf1+To3nflotGOvNqPuR6McOa39pzT6hByajFOTeSSWLb5JEgu/RCvUzqNUlwfSl3LZ2kprJZ3XS6rvLTnwUzbKqNTd+ta+5HQTyjoZZl60qk31qK8Ee0tEbHwmv1v6mymGzru4mouLU6b+HNSvT6hUcXjFuLWxp4NdTRMrXoVB/l1ZJ8JpSXesCO3pclos+dSOMffj0o9vDtMMlJLGl3JlvQ2Ya2CbutdnuXL9L6ZnWuLSqopKnXevFtLX9qGOWfFeJOkypLFZJ15qnBYt5dS4vgi2KccElwSRUw6V72rpZompfoi4rDHG9uhkq3uh6AAokoAAA+W8CorVU1pyl70pS722WRpJbfQ2acselJejj80svBYvsKzI2KPS7We5ewaNdFz18kT21g3bvvavZ30JtL3XnF/peQu26a1oU3SSlqYNrHDHHHJY78jWr0Zwk4zi4SW1NYMnIj2Wel03KVlWOS8a2XenXyTu5dKKVfCFT8KexZ9GT5Pc+TJGinSWaMaSOLVGvLFZKE37PKT4cyrS1+kuhL7LzItbhmiiyQ+6cuXAm4MIyVSKAAAAAAAAAYOFpTfH+HpasH+JPFR+Fb5fY7jeGb/tFW35b3aK86m7HVhygtn37TSrp+yjsmtcihh1N20t3eFM189ydbLmi2bV2XdUtFRU6a5t7oR4s16VOUpKMVi21FLi3kizLjuuNmpKCzk8HUl70vstxJo6ZZnZ+FNfJOtRbrqxKdmXiXVzXrWYue5aVmj0VrT9qb2vq4LkdTAJGToWMaxNFuo5Z73PcrnLdQAD0eTGB8yimsHmfYAPCjZ4Q9WMY47dVKPke4AAAAAMYmHLDbkQvSbSVSToUXk8pzW9cI8uZhnnZC3Sdw3menp3zv0We67jnaWXurRV1YPGnTxS4Slvl1ZYL+pwwdrRa6HaK2tJfhwalL4nuj9+XWc936iXzXr8HUokdLD5NTj/AOkt0UsHobNHWWEp/iS5Y+qu7DvZu3pddG0x1ai+WSylF8mbyGB0bYmtZ2dstRyj5nukWS+d7lXXzdFSyz1ZZxeOpJbJL6Pkc4ta87BC0U3Tmsnse+MtzXMrC22WdGpKnPKUXg+fBrk9pCraXsVu3wr+PI6PD63/AJDbO8Sfnz5ky0Ovh1I+gqPGcF0G/aprd1ryJTiVJYbVKjUjVjti0+tb12rFdpatmrRqQjOOaklJdTzKOHzrIzRdrT46yJWKUyRSabdTvnrM9wAUCYAAAAAAcbSm1eistRrbJKmv1ZPwxK1Jvp/VwpU48Zt/wx/9EIIOJOvNbch0uEs0ae+9V/GXMk2gth160qz2U0lH55Y+ST70Twj+hNHVsut78py7uivIkJToo9CFvnnxI+ISdpUO8sk9gADbNIAAAAGGwDII3fGlVKhN04xdSSylnqxi+GO9m3cd/wBK04xScJpYuLzxXGL3mBKmJX6COzM7qWZsfaK3u7zsgAzmAjmmtWcbNhHJSnGMvlwbw7cEV+WzbLJCtTlTqLGMsn91wZHFoTT1sXVlq8NVJ4df9CVW0kskmk3PLgWcOrYYYlY/Jbquq9yMXPdNS0z1YZJevJ7IL6vkWTd9ihQpxpwWCXe3vb5szY7HTowVOnFRity3vi3vfM2japaRsCX1rv8ApDTra11QttTU1J9r1kAAbZpAhunlhXQtCW/0c/Fxfg12omRydJ6CnZKq4R111xal9DXqo9OFyeXwbVFL2c7Xedl9FKyLA0ItWvZtR7acnH9L6S82uwr8ln7P6vTqw4xhLubX1I2HvtOnndC/ijNKnXyVF+vsm4AOhOWAAAAAAIf+0FdGj11PKJDCeaeUcaEZ+7NY9Uk154EDOfxBLTr7HU4W69Mnkq/N/ssrRF//AB0/1r+ZnZIxoJaVKhKnvhN/wyzXipEnLNK7Shavl+jn6xqtnei715gAGc1gAAAAYAKhtOOvLHN60sevFnU0RnhbIc9dfyM1L6o6loqx4Tm+xvFeZ8XXaPRV6dTdGcW+rHPwxOXZ3JUvsdnxOyenaQLba1fgthGTCMnUHGgAAAAAAAAA0b5eFnrf5dT/AGs3jiaX2hQsk1vm4012vF+CZjmcjY3Ku5TLA1XStam9CtyUaAL8ep/l/wDJEXJh+z+j+bU+SC8W/oc/QpedvWxTqMRdamf1tJmADpDkgAAAAADn33ZPTWepT3uLcfnWcfFIqxlxMrnS67XRruSXQqYzjwUvaXfn2krE4lVEkTZkv0WsHnRFdEu3NPvryPjRO8VQtCUnhGfQlyfsvvy7SyUU6T3RO/FWgqNR/iRWCb/eRW/rW884dUIn9Tvbke8WpVX+5vv9LzJMDBkrkIAAAGGZABANObHqVlVWypFY/PHJ+GqRssvSawqtZ5LJOK9JFvJJxT3802itDn6+HQlVd+fM6jC5u0gRNrcuRZGi14ens8cX04YU59mx9q+p2yrbivSVlqqazi+jOPvR+63f1LKslphVgpwetGSxTKlFUJKyy606v1tI2IUqwyXTwrmn2nWw2AAbhoAAAAAAGGQLTe8VUqqjF4qn63Oo/svNki0kvuNmp4ReNSS6C934ny8yuJSbbbeLeLbebbe9krEahLdkmvaWsJpVV3bO1Jq5/QLJ0TsforLDHJzxqv8AVhh4JEHuG7Xaa8YeyulN8IL77O0tCJ4wyHNZF9E+z3jE6WSFNetfrr0PoAFghAAAAAAA598XdC00nTllvi/dktjOgDy5qOSztR6a5Wqjm60KhtllnRm6dRaso7fuuKPinNxalFtNPFNZNPkWVfty07VDPozXqT4cnxRXl4WCrQnqVI6r3cJLjF70c9VUroVv/rsX6U6mjrWVLbLk7anLrIldx6WxklC0PVlsVTDoy+ZL1Xz2dRK6VRSSlFqSeaaeKfUVAbNjvCtReNKpKPJPJ9aeRsQYk5qWkS/nt/Zq1GEseulEtvLZzT8lspmSvqOmNqjtVOfXFp+DSPV6bV91OmuvWf1N1MRg3rwJ64VUoupOJO8TSvC8qNnjjVmo8FtlLqW1kEtWlNrqe2qa+COr4vFnHqTcnrSbk3tbeLfazBLibU/xpx5GzDg7lX+11k3Jn+TsX9pDUtHQWMKfu75c5P6HFB3tH9HJ2hqpUxhT247HU+XlzJv9lRJvUrL2NLFuRPzzU4J07lvqrZpdHpQfrRex81wZ1NIdGJU8atBOUNsobZQ6uK8SMH17JKeTcuxRHJFVRb02pu5exZ913zRtK6EsJb4Sykuzf1o6eJT0W08U8HuayaOtZNJLXSyVTXXCa9J47fEoRYmmqRPdCVNg6pnE72XmWYYbILDTavvp031ay+rPOtpnaX6sacf0tvxlgbH8jBvXgav8VUX1JxQnrlgsXkRq+dK6dNONFqrPZjthHt9rsIfbr1tFf8ypKS4bI9yyNM05sSc5LRpbzXWb9PhDWreVb+SavdT1tFedSTnOTlJ5ts+aVOU5KMU5SbwSWbbPuy2adWShTi5Se5eb4In2juj8bMtefSqtZvdBcI/c1aemfO7y2r1tN2qq46ZltuxOtSHvo7dKstLB4Ocs6j58FyR2ADomMRjUa3Uhysj3SOV7luqgAHo8AAAAAAAAAA1bZY6daOpUiprnufFPczaB8VEXWfUVUW6EIvLQ2SblRnrL3Z5NdUtj7cCO2u7q9L8ynKHNrLvWRbAwJ8uGxOzbl8cCnDi0zEs9NL8L16oqlOgtipd9CXrUqcuuEX9DzV0WVfuKX+nH7Gt/Fu2OTgpuJjTNrF4lWRji8Fm+WZ1LDo7aq2ym4L3p9BdzzZY9Gzwh6kIx6kl5HtgZWYW1PG6/pkYJMZevgaieufIjl0aJ0aWEqj9NLmsIJ8o7+0keBkFGOJkaaLEshKlmfK7Set1MYHCvfRqhaMZL8Kb9qKyb+Jb/AAO8D6+NsiaLkugjlfG7SYtlK2t+jFqpYtR9LHjDPL5dpx5wcXhJOL4NYPuZcGB51aMZZSipdaT8yc/C2L4HW9c+SlSPGZETvtRfTLmhUILUldNle2hS/wBOP2Pundtnj6tGnHqpxX0MP8W//snBTYXGWW8C8Sr7JYqtV4U4Sn8qbXfsRILt0OqSadaSprgulJ/ReJOtUybEeGxtzet/whqTYvK7JiI38ry/Bp3ddtGzx1aUVHi9spdb3m6AUURESyEtzlct1W6gAH0+AAAAAAAAAAAAAAAAAAAAAAAAAAAAAAAAAAAAAAAAAAAAAAAAAAAAAAAAAAAAAAAAAAAAAAAAAAAAAAAAAAAAAAAAAAAAAAAAAAAAAAAAAAAAAAAAAAAAAAAAAAAAAAAAAAAAAAAAAAAAAH//2Q==;" parent="1" vertex="1">
          <mxGeometry x="480" y="480" width="80" height="80" as="geometry" />
        </mxCell>
        <mxCell id="dLWC3Q3VziQ37p1mokn--16" value="" style="edgeStyle=orthogonalEdgeStyle;rounded=0;orthogonalLoop=1;jettySize=auto;html=1;" parent="1" source="dLWC3Q3VziQ37p1mokn--12" edge="1">
          <mxGeometry relative="1" as="geometry">
            <mxPoint x="630" y="360" as="targetPoint" />
          </mxGeometry>
        </mxCell>
        <mxCell id="dLWC3Q3VziQ37p1mokn--12" value="" style="shape=image;verticalLabelPosition=bottom;labelBackgroundColor=default;verticalAlign=top;aspect=fixed;imageAspect=0;image=data:image/png,iVBORw0KGgoAAAANSUhEUgAAAOAAAADgCAMAAAAt85rTAAAAkFBMVEX///8XFRUAAAAUEhIJBQUQDQ0MCQkEAADt7e319fXr6+vw8PAVEhLo6Oi/v7/6+vpcW1shHx9rampXVla5uLh4d3dBQECfnp7j4+PLy8tPTk7HxsbX19cuLS1IR0eYl5eOjY04Njaop6coJiaFhIRubW0yMTGvrq58e3tjYmKSkpKJiYnc29tDQkIkIiKkpKQrDOYYAAAKMUlEQVR4nO2d53arOhBGDyMDJrjhGre4xiVOef+3u8Y+jjGgGYEKPndp/8paSRAfqEyT+PPHYrFYLBaLxWKxWCwWi8VisVgsFovF8u/Rbs7G09aF6XjWbFd9P8oIXsY/p84GMkS97c+0GVR9f1IE02VnHoupMScDq8W/2fRO03rV91mKcHqKtdXcrLSMzGg7Dau+32IE+yMDILQlVJ4fRGf9z2gM+z0AP6dTUm/ybf8vaJwdHPCKibvhgTcYV33/OO3+CqDgu3t4jwDz/ROvIKO5+Ljj4cL34jklthcFphXiNS6fcHkcRdBQIe8q0VlUrSdFK5IZenkSvX3VmhK8dtR0zkeJk8+qdf2l/QE11fJiarB9iqE424EOeTHw/QTL4kl977zjwqBiec03ba/vCgxfq9TXL2uViePBujp9B7VrA4fKummou3v+Klw1q9DXjAzpOy8YXgVL4lTn7JnGhb5pfX0jw+8XBoYttx+z+s6AUfN7bWz4VaNwUYG+s8KTKX37SvSdFY7+3/pMKZxWpu+s0MBqMTM+fyZgoN1/CjyD63uewhe9+torLc67ON5Gr5f/XuEAvAIdnfp+Ktd3VvihTx9ngmFxos9XOjbdS/IwfzrTONG4uSKY97H+OR2HoCq45gGsjtvRerHhPE9dw3CQ30HhcP11c98B+RCGC/C2fr1mJ0acBrt69PU5AxBmv3/SXn/JvUYPVot7krDJyQboCdO0Oa2584dk0LhXXqIHw9ZDm5P8DsFAR6a0y3uB6ZjQrGQgn8FkmroUz23xe+r1jXkrRI59ON5lJsCG69X8WwWJX/Pc9B8wcHIuVKBRWRq8twJ5kdm183tr7KIrWk063cH2tFyetofucTKM4GEh8POXN55ABqqTpJwJLRaY+/dh99xPLzUiXvdjP3sJ0zcUvnz2F+/RdQVtwCQ/MrjhPlbF3u8L14dwh5x/GUewOY7G1JOerbs78Hk9jrMyxa9QbUif25AD77z/CWeCC3L7kxvY5QdH4FhcBZ9Xvg2q0zREoweJ5VcexInQG0Zo8RuuKXQrPhEnQm/yh7tOOEqNbt4aX63AmrLVvol5gXoFohEuUJWS2aKtaB2DPAP/2jR3Ai9G6GFxNFiqaSUfNEfAQE3eEE9E+JqcsysfaNuK0hUOGghlkZJGOHRQ14vlm4kFmRGBJiWN8CCizJD2r8pARQp1BpvR+fuMr8BeC/AeqneWofI8DV/etUcn6hh3p69+tUdFPxRkto8+1YbGUPOBerreRLoNsom5AiFcOlTz0jFSKhuo2vFMEXBd+ptA2eAM39NV1AAB5sjEyNoZ7RX+BHXE7x5Z4gqZZDqNeICqrEEM4hFLOvZEQYxeS/sK4tRfbkHOm+mii4QaW5BiiCZ0JN1e3BY08QKpV9iQesi4LcjAzNZGfBRK+fX4KqjXFbyDV45Bi74CF8LfVOGsCPCC38VW4tK4IWpkionZYX1UKj46xK6swhkTA+2j7qq8NxMyNNxkrN4fi446zC8/1SEpCUdhWJIkzNumfr+P8uY+OomyhrktxehQkZhGUUPN/VKogACd7OCn9HXRwa0yu0OBx9bLJ/DQiIHJHTdojZzEjaBhVzOG6BU08iVhbuNj21CJeAxqb7ur0tf9Rmfn8mO7MKhAieQBunH8ad6ghFdqIrUjBO4S6hKotbzikWoEyrgpBcFzFLoEGlwH+YVkGgWa8udj8OCoJoGe9pjvHTxHKSEQWwe5VXgaQE0qiWUCzX02InPu0hdmUjGn9HXRWIhjIGz/lzDCLA53V/rCnJrwm0BDQTUqPCuRBMUD9+aMUXydl5jO8dnZV1RJRUOEZ5elL4yvr4ypk4DTw4dKeaufqLAwNssQt1E+yUwUOZk6f4G6jfIpUDwpYCy0fSIElt/1GuTvb7vBIjOHSqGRE7ksPb4QymWuhCF6qFQtEFFEYiY0igZFJd02qhjOxDzapu5BplwNTes4Zs7PoE4+kSvnJAu5NO/bP79AsphL6vJEFY6BwAy1s10i7BtDFFJJJeeECMgbWEpdnzx6RN32k3yoYkBZpy30qFNRK9wYEsM8ybgCsdQ7ejPZdfJsF+mSX9xjinH1xWbaK/rxynYgqiD1jK8tvNajG5fvP9SugriRiZ66+yOtTyKidoNcKGKFbzoUCrw/FWlmgT56bmejfDlsCp2sq2KGw72xv3iqvfuWL3KuiZLoOj2PxjA4KvR+g67Y2V9KFmHSWLo15iirXVuLHl2q5uicTPgXIPc8IgYbJf20/y16dJuiDF7aKYRDfzbeD3JOOHJh9SM5nwajnfhhLap29r09jPdf63bayz5pF6A7Ld1vwtaxyBcPvDc1+lKBi0SkqeXmjBUfou6+RCjjdX10ix0mpO7U2Idt2My5r3nt3N1hlxNk3kfjF8FXGTSniyMU/k4Mc1XpS3nVrpcIJfPq9S4i55PulnDXptvuZMP5MhOBwuxWKi7CYHufSrCKRNcDsqD6C9Bt+sjFNwrtw3RgBHZ3Ewnbw8gcsp46+C55pJ7a9GSUespuYoZ2+HcoEk+gtrFzcNXu38+EDhJHmfLjNmLutoBXlINq4zcTukjsbeUGhsQSW69lvoajYHfyI9mO5P0GJAOOaeUJlq3j5znko/TAowvZ13Q7tJEb4RedBogtkLmXVl8oF2ZjF3dvM9+lEg0KU+mVLMzREOjKPueELZgX2GC+6KW/ih7aqScxmY2RJNr5yRrJ4hlukbjPQ7t6wunZTposopqtUpNhTbzmueDZ61o6aEy2kz7MZaOzSXk9dJJ55x8nLWFTquBary9znrE7Uy71dPDVuBxF+TboF3EKqWNjUvoO9BVLkgmlZ/fuhc1mU9RN+oUoV3nEk9gQSZJJhqh5mvUCzlJD79bvzDBUkgCtu+LGmu7SlbTjpOQ8oAIC9ddwps85VHEgkLhAXUdsJ0k7uArarGeONObpM1J5NE8rlM6e1QWjFqD1eKVfgvQ3J3xZ51NQYG1l6IuSYSOlkEFHKsYstkzUzG37rs/TLmoNVut00ZP47QgJrO0MftY9jDL1+C7A12A9nTXD8OVz3Bq9TxrCN1QXCPn6BvehnAmGOdaVC0lqNXGBdDoJhoa/6Nomv67IPIUC9VQB4FCnVjLxN8g/h/2mz9gWjSQf+G0VEohaMszkbtokLfQDKAWOQcHdJc9MaXgen2mj5vG5qxEI8yq/if3O76YN8WpgxKNn1Qy/O33g7lBTIVDaCpSn3uG9RHmBZxPQoPXCZQ2cyL1wop4jEKr8SnSSy+dPlAt0oWvUOEMZRzn9VEogg+gJvkWfYJ+tvpIRCJHhDwvTBIt0dVdpgQxgYdi0FqK9aDxILCmQQWNh3rIWI1z791qlAtt+Esa2B/76eeaWHFo9+Gs5FznfuHe1FhoAvcrsTmFeT37s7UKRmPfr9T/8k+aNQqoYH3q9ZaGOFi57vcNzrQsWi8VisVgsFovFYrFYLBaLxWKxWCyWLP8Bd0OMHy9KQeAAAAAASUVORK5CYII=;" parent="1" vertex="1">
          <mxGeometry x="480" y="320" width="80" height="80" as="geometry" />
        </mxCell>
        <mxCell id="dLWC3Q3VziQ37p1mokn--13" value="&lt;font style=&quot;font-size: 18px;&quot;&gt;Sonar&lt;br&gt;&amp;nbsp;cloud&lt;/font&gt;" style="text;html=1;align=center;verticalAlign=middle;resizable=0;points=[];autosize=1;strokeColor=none;fillColor=none;" parent="1" vertex="1">
          <mxGeometry x="485" y="550" width="70" height="60" as="geometry" />
        </mxCell>
        <mxCell id="dLWC3Q3VziQ37p1mokn--14" value="&lt;font style=&quot;font-size: 18px;&quot;&gt;Github&lt;/font&gt;" style="text;html=1;align=center;verticalAlign=middle;resizable=0;points=[];autosize=1;strokeColor=none;fillColor=none;" parent="1" vertex="1">
          <mxGeometry x="480" y="393" width="80" height="40" as="geometry" />
        </mxCell>
        <mxCell id="dLWC3Q3VziQ37p1mokn--19" value="" style="endArrow=classic;html=1;rounded=0;exitX=0.475;exitY=0.875;exitDx=0;exitDy=0;exitPerimeter=0;entryX=0.475;entryY=-0.112;entryDx=0;entryDy=0;entryPerimeter=0;" parent="1" source="dLWC3Q3VziQ37p1mokn--14" target="dLWC3Q3VziQ37p1mokn--11" edge="1">
          <mxGeometry width="50" height="50" relative="1" as="geometry">
            <mxPoint x="620" y="490" as="sourcePoint" />
            <mxPoint x="670" y="440" as="targetPoint" />
          </mxGeometry>
        </mxCell>
        <mxCell id="dLWC3Q3VziQ37p1mokn--20" value="" style="endArrow=classic;html=1;rounded=0;exitX=1;exitY=0.5;exitDx=0;exitDy=0;exitPerimeter=0;entryX=0;entryY=0.5;entryDx=0;entryDy=0;entryPerimeter=0;" parent="1" source="dLWC3Q3VziQ37p1mokn--2" target="dLWC3Q3VziQ37p1mokn--4" edge="1">
          <mxGeometry width="50" height="50" relative="1" as="geometry">
            <mxPoint x="620" y="490" as="sourcePoint" />
            <mxPoint x="670" y="440" as="targetPoint" />
          </mxGeometry>
        </mxCell>
        <mxCell id="dLWC3Q3VziQ37p1mokn--21" value="" style="endArrow=classic;html=1;rounded=0;exitX=1;exitY=0.5;exitDx=0;exitDy=0;exitPerimeter=0;entryX=0;entryY=0.5;entryDx=0;entryDy=0;" parent="1" source="dLWC3Q3VziQ37p1mokn--1" target="dLWC3Q3VziQ37p1mokn--12" edge="1">
          <mxGeometry width="50" height="50" relative="1" as="geometry">
            <mxPoint x="620" y="490" as="sourcePoint" />
            <mxPoint x="670" y="440" as="targetPoint" />
          </mxGeometry>
        </mxCell>
        <mxCell id="dLWC3Q3VziQ37p1mokn--22" value="" style="shape=partialRectangle;whiteSpace=wrap;html=1;bottom=0;right=0;fillColor=none;" parent="1" vertex="1">
          <mxGeometry x="240" y="200" width="680" height="440" as="geometry" />
        </mxCell>
        <mxCell id="dLWC3Q3VziQ37p1mokn--23" value="" style="shape=partialRectangle;whiteSpace=wrap;html=1;bottom=0;right=0;fillColor=none;direction=west;" parent="1" vertex="1">
          <mxGeometry x="240" y="200" width="680" height="440" as="geometry" />
        </mxCell>
        <mxCell id="dLWC3Q3VziQ37p1mokn--26" value="" style="sketch=0;points=[[0,0,0],[0.25,0,0],[0.5,0,0],[0.75,0,0],[1,0,0],[0,1,0],[0.25,1,0],[0.5,1,0],[0.75,1,0],[1,1,0],[0,0.25,0],[0,0.5,0],[0,0.75,0],[1,0.25,0],[1,0.5,0],[1,0.75,0]];outlineConnect=0;fontColor=#232F3E;fillColor=#C925D1;strokeColor=#ffffff;dashed=0;verticalLabelPosition=bottom;verticalAlign=top;align=center;html=1;fontSize=12;fontStyle=0;aspect=fixed;shape=mxgraph.aws4.resourceIcon;resIcon=mxgraph.aws4.codepipeline;" parent="1" vertex="1">
          <mxGeometry x="322" y="160" width="78" height="78" as="geometry" />
        </mxCell>
        <mxCell id="6qf_IFyZUk1dF75Pgvih-1" value="" style="shape=image;verticalLabelPosition=bottom;labelBackgroundColor=default;verticalAlign=top;aspect=fixed;imageAspect=0;image=data:image/png,iVBORw0KGgoAAAANSUhEUgAAAOEAAADhCAMAAAAJbSJIAAAAwFBMVEUyaZP////u7u7t7e35+fn09PT7+/vx8fH19fUwaJMtZpEoYo4AU4X///0RWIfLz9Li4+Tm5+gdXozc3t/b4uhHdJoAUYTR1dfGys2/xMiwtrtPeJnW2du4vsILV4i0w8+nrrOUqLrV3uWltMHF0dqxwc5vi6Q9a5GWrL5niKbk6e6gq7Z/l6u+y9d2jaPM1dxggp9ng56fqrZwh52Oprx+mLAAR36qtsGJna2BkqNTdJJ2k61Xd5SpucqeqbGWqbgGHkU3AAAZNElEQVR4nO1dC3fiuA7GedghJi+HNg+SQAstLaWF6bYLczvT/v9/deXwKI+Q2JBpO/dWe3bPbAaEPku2JFtWGmhFurIksn60eqJq60fq6hFePdHWj74kK6XxJcX6RviN8Bvh54v1jfAb4QGE6pI2eK0ebfBa0QavFX1NVg19RdqaSh4Z6yfG/qOvyaqxr3O8bysrnavK+hFZPdL3beVLsZJDqGzwWj05UqwPY/WN8BvhN8LPZ/WN8DCvE5f4D2PVICvS8JK09SNc8khfPTHWj74mq/+DqO2d10rlXyBc/s4t/lqEmHiu6wZJmPgrClzXUz3yqQjx+lMirJSclcX/VTZZYYt4ahCFTugESeIvVn3iekkIz5wAYH40QsXCxoJU3/N9vnwpZayIAp9Qc7W48E9OKv+awtd6zUsSx09cTyfYQltkGbrqh07k+MaHISQeQAqdxAlgtJMkgF8PgZzE0wx8iJXnOU7qcEFVxfNgiUuABXwpdD3PdeC7npbL1Z50+z87K/oxv7q/dDVuKK4fOC7BH4BQ9ZMgApFUoqGcn6VhTSeezwEHicelMHZZET+IEhiBpYlai/9i3QNeURhw/hYO+i/TockYZdRcEqXMpsPpbd/F3OcHQQDcj0co4nm0BMbdXTAiYFoDoGSiLE0LXLDPzQ0MUFHWrLAHjzxuY8rkvn9z8TB/mM9vbn4PJnxuWdy61cnFPzSzqdls7FPTNO2MzrsghOHyoVV2pSr3hyuoynt8tH605qDlCiE+6A5G0yLtcP4ybPAhBqK00Tg7e7nrtnMeBgAPAj//fawQ1YUhwbBMRuNhI/8811L+LzXPrmeXIxiddJqd0wJwGzApa7xcakjzwU42pdqd7ksy1o/E41JQWRTAI+1qfJbZbGu8zYbJJR/+ePrt82HUYG4FPlmYp68hK3w5y9i+hkzA2Xi+Aq6Tt2ZWjhF+gk77MIK+4+s7lriH8JhdDDUIQ+A0eaAZK7KlhT1R27av+xPgr2mgcd8JAwMpF/bh74B27PNpV0HWVadVgbFh2rQPNhQ4Hi5HKJ9bAMDIB3y3MFeqpAC9dF66hgXTMghBj7OhXfUdmg0vPLCOM1b1ySbrhDDvHG4qtSL0I4eg0bjFKgRYoTRBlV1u0mjSyaqkzr/Bzh8myOgP7apPUnatg0AwG+tE6IWOhroNQXw5gfGxPrIuKrWyIfqti8i4+gvsrIuQ73jrleZ0hEYUIHRDq2bJDrXmGI8zmW+wxoWF7mnlQFJ7jpEb+LUh1AMf4f9IyQp03kdKR0brnGx6j6znynkLavSQ5wSqCEJ1z6vjnTxUCxKkP1TOj11Z50g9k9R6g8/HuY76lctZg5o+8qJgEVhs7mIsaQOhVkVGEmDrWlaD9txSprIaXHxzOEFtAUsFbXuOXym+Vhm1kSBV0VxWVtrBuCOvwZxMOkNe9eiYAFFzFvHNSbsYXpTA5D/orw/8OkvQ+CgNLr79hMi02m2YA+QuIJ6UWwQRHknLyCJ0IWvXm5S9EOu6EmKTBmCo3okIvVSRt1H2jCZHa3DBYaob1RDpUEV+gk9CSIIItc8lxTNNXRsKO/piYh3dqjZUc4oRrPSnIHRTFV9LO7U+ujhNhQ2uRVWr1iJ7gRhVPwEhCVPUlvWEtKOpQ8mlqUj4DlL/U5ls0DaCeEQ0x99DSPhCOpVd9O0u+nWko9gidotGlcbOrkGJ60imHOHe5grPX1ODNGQ9xRC7sjP3gPRPaGBX/XqmglNcQ3xHqKwRlkVt2PdRVzpcu7Je6lAhz3dTNGtV/dwMRc67TgqitrWCCyJvnLjoh6S09MyQnrmHyGQTdFuxZtEXFGwgXMERQ6iAhePD2w/FxOpYSNfMOoY3LB9is6O7qXYsQtc5wkhHXnVmIM7tF0oqxti8NI5GSIJAWh/0xerXpkKgbFAV4Jpt/WiEXuBK+4rMQb/qUyGPj9SKJMW+N2L1SISuQzxJ120yy61rnVkQOLxBKUfW1dITELYl9UH/Qf16EYKO0G2ZEiHAiEoRHvaHihNY95LigjOUjoEqqGkSpSyCYG+bCAv84bpmwViVMejLB8iNkOyqYbZltV5NEMiX5W/sETnBqgajoHRjPy5938UAhJKpIZ1a0u6lmulQUUqWAzZDabKOUVayi+UWToIk91rsG/RQs5Fyrg9lk5vPw4QcidBHHTmbA19Ro7tf07lHCk8Wc6KnITyXkrdJdbcqUj6G2HPJgmAP9NQ90kohOWxJITTPUPeUDahD1BwS9+B2H708HmEoi5A+oKc6Q7Y1ZW/o4RBjiNqi4xFaQidja7J/W9d/YBryrNo6GNicKV4oiHDPW0gjZPf6WQ14CsgeGP8pNlOzY/ihX4aw5KpC6lpyzs10R/X7ipzoNboploXeIifSSq5nlERtRqpIImyQSe3+fkm2lhSv0uwJRenaEOV2MdRUkVtpYCmd1bnQUMZsO8sy22Ys66JGoSz2DPWCd4QrOEIISepJIuyg5w2EZl4yY5oZOyYKoJROX27SNEmSKLq5uf19IFXNEqt37D4NSRM5j89e0MsKoWm36LR/f9lutwezf5jcisWLM8xZOy8O47SQq3hPrKUrPf9IhCoglIrawGAWp74ms3/0+ZmQNgKEioWsbkdmgjZZB9Qymv3sMDDS8yzrdH6GxbKYZ9h/T4AlERqpZORtd60zk+MzL9oYYefmttMAKz2bPrlIf5aYofYDRpPboU3pcjua0uylOKaHlNs5GqEaQfYkhXCgD8E8h10NGd0fbF2JZ7LsWUc3whDZ3NLGO3Vu7KZYh/ZvFEbH1mIQRzIDzi71hj2cIdQeN+ztOJJ1fCSqRdrB+qKII6/wK0fIJjj2Cyr3xHYx/Ei7lwmks5FHxwS1n+39LU42xERwSWWOlW8gsvPOz7efyyKpQwhNVe/55bUY6z/tVyqosdxOFCAcIHV+vqErysCX5VVO9gW6ElptaAddtbivuVlIufiWHRWu6/Bh0MPRlQpa7EntJmZtWDS3SsPodDC57M7zZ/ZIE+LCrvIVGRbmBUULhAHKCkSBzBHm0tEnpFqcWFMJJdpt67m1KYY5Xbgy68rM98QOZkCbREdtPvfs+6VYZ7kELVUr2nDLBij1TzjljsN3Fy6CcLSTp0Lcv+R0QRv0zAoFzNScavf8N5uNAf+isfRXVAsKloTmUFEg8joeYRhLrPELhDtPVqZ2DX9heiKZh3lt/V4upBfd7u8lQL57UDA85g/sRuQEhE4PiQz7irKRuntgfN7nv0nmnAvPHqtntfmMxsuBsIGWf+S7BwWS2Dd8I+IEhEFPIxI7S9mlsouwyaaz9GZxBMhuLIGyDlg7CsIMelN4sNwKUOyfglBNPSxR8AUxzf5DXvm9DL0e0O9qi9jQ4QZlV9aP/TXPNJGbEnGE+5V7ahqgf8TjNtZFZfWW5hAJBBAwD/v7TNiAFPgt9hMFUS5omT8s689gBKHMEWlWjrCRaV61zcPiUaBp6hchtLs4DU/rGuHGWOIcwq5A2HL1ambNIRnsD6qpXu4PTnM4InGinNQ1wosNX9xKqxBmERLIhPd9Die9oBSQ3qIkzjcS3xGu4Igi1CJVogaP3ZUjPBQ973xqgPZ+EvLcAluCEY0jcirCAImX/2R35RkzfUE/q5mxx/3aBFrk8Ju2ofWCExGiIJU4QgQdlh4Ag1U9VjODdCHaRUOLdvHoNRipp5yIMIkkohr7rvzE3ezgmUhk6o12P1W4T2lD1B2ppyL0UjI6fHS3+5OP5fOw0SEiGbW9792LwlJzSEhveXB4AkItdQ3h/TY2K0fYHHqXAiZPx3uxT3O4v9KwOYp6CyM9pWuE5jiFIW8hVXl80ToGWyc7uWCzQSa72rcvcRwaJ3eNIGmErkT3ampDeLVXgmu67R2PD3mkG6+Ud+wuBq9kT3qaJ4qQx6WlHxBECGvublizH5fyxClcATqlVj/p+SKByOJHJ0b5to5wtU1b3XH6dB+hjuP1bv4p9y3U2BEuorXbennJtChCWJQvtic/u9K2CwIhFXPeSxJPQhilVlfQ57dGXjkAUYSmranbBd48e94aZzax0gjVgVAJY0NkiedER5OKel5RK80GaBsQfbC2aiBoB6uxWw9CNwaPKCQW5D3ld4Eg27kUM3j6C7e3PmlOt0+5YblNY1IXwkQw+DZ/GeW72s0zRfSUABKMLcezE9SYQwi6w5q6RpAoRiLRJPzsS8VBDp1aoqfgdIoGmw6waeLBxuCwJxTGSV1dI/wYq0IbbvZT0R7Sptgv6E00UWEDvJWn2Ir/jrBpeuAqrLq6Ruipgk2RBQIGtnzbCj4gfHsDvH60adGZqrwPM2jYT0ltXSO0UHA7igdtpSORhaji8sQGtSZbH87cDUOy21Yc1thTwU/xvQhCuwqh7SmV15jWxG631pZWYK3Pntg19rmrqA2hG2ttkaGvQtik2JE4cAWfvrEnsnm6dj5BaWjUiFCLXKGKhSqEdC5VuUg7aKMMKgvQSqMwC9W8wKS+vhiR2GYNRPulp43sHhfszB+m1uXGtg9Y6Qou+Mowrbd7i5caImYKS2VZ6YbZUOTq+ugUt9cFAZm/WmnYtaXG+R11QYSHKxXW3QtJ6hkCV33otXWgfnD514KRw5rs+/cD2kxZImzCIhsvwpm1Vz+xa4SmkdQRKRVpdoyyCyhZJHuJina01a4bxDThYpViP5DXc7CA2KJdI/gQwUQUCSgZZE8HvYE51AvOI8rp/VK42VntTsESG6WesmV1J/e+hETfQOfVnsxOS/ZLYR2Svnlpmpq++F06Xm6I5QtpsLNy1NCRLg528rVCgl8/ONOa5yoRiv22iD0vI1n7arkOM5iFy43uWhGCmQok+hAQjw5tY9DSey8HOQ5Hi4qe1fkhe4EAJCS1I1Tc1PCG1QKx2cEVyZ4c1c0FPBDnaDaWZxnnbRSnq13fOhHyYlqByhpzqLnFt3YhVZC96LcgO19OYcnJZwkboyReXwGqE6HhiKXB9tWBW7ute/neDDktzIKNCK/yNk3//Z7aMZ0hD89Dzevpusi99TNCik5Umwwlx/VZaA71EQVbzWMJGMAw1smxCIu6RqweaXoaCGWvbI4GBVDAumSKq7a+OkNv/3qYHw+ZZwbuORtS7RubbNeINQdNjSKxu5OwFBQkEDTRJO/5rcmkqnaF3nIVDtAs9jalEora9q26sG+i31MrNrSXWIYjNC44wt07OhIm9gMjl7sKcI5+zyF/qOu8ooJ5CK0VbGppu426wHalOzG9U6uL7rnlM/AUPfWP9dUnUayJ9X5iUwPdbjc/ZG3thCttlCa8r1bWR+E8IH8OYdLzRVIoIPtFR7PNJovmL0306KMYYsPSfrAzRO54bckfezeCmoaHro/tEhu2UfvHe7tVft38pDtt2TNy2T3qz9xdqepESKKesXv4fICo7SPL6nZW952yAT6x9Zf9hnyUvIZ7UtWJUHFhrRHq/2RSBwUzFeHJQ6vFq2D/xf6Jt4ObtI3QeFFaIo1Q0B+C0wlnh6+qbhLYk9O76814gKFf3Tw9/YaIz6RH3WBbEGXnsMyAp1C2peKdpjmV+8PDXSN23qOBvJ6Hqx1Gk3ZRMo+DsDe+mK0OT57Oz26fO1S2X9ESHx1etDWkOY6rgCCI5OWVhChu3lcbyPVKCkrK7gHvdD/XIPyuvowOo+3dxT6MbhTN569v/X7fQS99zsC9YMckUJ0JhJTdN4xU3l3ad5PAB2RRGML/6LyqhATJSvYTu877McHl+/b8AMpS40VJpKomQZKmaS9COrocv8wIqmr6VATwFqPJtMHsjpcfi7lumIS8nz8ojJvlqD1CSlgTQhSFuxUEe/L8QlqaussJT1SsaXoUIZiIjNl0gHxZiLSjW8+MF5tT+jxYXlBZSGO53ZuXM7PVskhaF0K3p+ilmy1sirU4VrcO9vxAQW+L/aTzC6E9u03iG9+rQWXZeePn26zb7fYfHzqt81Zm82bwfX4DsSaEehotovwDZJ6NUBr7W6zcQIUIZ/n34Cjl+r/RDgo3x2TZmJ/Zq5ipCbmjFztKTQhREKv64aIgk3oo4mU8G6xI4KL2Wu90iuU2MyBmLy/ozMaWFh/dF2MfoQ6h28E7EybMM6cXWBusdM1JkPqfd8OuLCraIXpPyu7ZmOwCZFruLlYjLPAWe7taSc9Dh2bieQoTNdxkpSh+oKGXjSGpKtDcg9AelRSS2eYE4T6IVLqLUXZVwdi9i4FJmh5qoGvDhHgNMV5+zzB04jqg0a3ti8oi2z2EB2uMmoxdgCOZ93xU+lJP8ahtsV+Ql9cUQQSA6nx5oJC//Ie/wsTT0O+tD9sV5fz7CA/0oWhSdn2JtNlb6tazi/G+D+f0NKWguT/rYO1tcaBAVKK7PPzwMLJ2dohbE2kdFny8SW37GmLx4OVxEY2/I1yvAMciVBDPE+/3ftUcelbErwYQ/lKgALTHf0KZ7TQaYNeaFMLmsK1dZ7S5nopN3ouiNbyF1MXy3+axe3Il+z5CxCtOH3b8NuUnz1yDqh+G4eL2uP77effVHea/EHnJIDQ7BGn9s/PzzM6J91e47t+P+Bs3Luav4Sp4qhchdmIF7/RNPZ9wP0HyN5kYoLvL7rxzbu9e7OOJo5wO6S/s8gpE977L6SrIyxGx5z++vkb+Wqi63/CopvFO03z7AvxEkL+qBRLf7m3nvVPAJsBshgaOHMJb1H2chZ6BFu0/LN0Lovji9e4u9PU/+A5LNw6RstFOvPWGlDjlt+JDD111Drzzx7Rn4E5cOYTPKIrSt8e3t9fXOdB4/DKf96PA17U9qepECIFgivB8eUeX0T4iMS/2VJJUI/8eAGAPB/C9nhxC+wZFAbid0EnTOOUEi5iiaYVSHUIo6Q8Xn3DvIh3dD1t87oNb8uK8R6rqxi4qfhMGzX4RsGRIrKyqDHOTGCDkhSUYW5rrearilUiVIyzwh+s/SbwPU1HDR9AGSq6eui4sPeO73NMjSGMIf0/MrpZo1rlHWvc6UiJAKKPDEPUcZSkVRnwv5aPe0qkG8VuaXwbQnLf5IuXl16Ti2EPksUMhu1moqmky2+xcaci7e0tVEsshzDzc88WlqvX9h8QL0rfXtztYAXrBoic6Nx8/fuXVPMnVxY+z8xYQ+3FxBXZG+vO7gG+6yllpi5Ce+0kIgZfiw/xPITjbWJiwGsbz2cTAFloW9cAzY5KOe7meZREyzUu9z0OIkaEpBK+/ly8BWPPCx5fxxU038D0gN+jOuJoXWbgkQvMMJ5+JcEn7zkUPwujudZzTfB5Hoatb5B2h+DzMm0B9PsKCd8kaHn+nJlDgua5naGtWsgjHVrjaZPpaCDmr1R70FitJK+VtrgJymlSyb+k88VXTHKHEMRS7wqmvnChVadeI/Uel/RmqWeFIKmpjAxy7uJr7CV0jdnVe3p9BrWYVyiA0qUvWzciPluqoyDvntXry5xA2G8SLtEOs/mhucTxCKSs1h5YbGYdYfVGEjkwGbHaW7Wf+ZxGyFxT9dQhDKYR3KHYOsvqfQDhDcfKJCI/yFo5g7VhO2cCSRljgLcq7Rhx+VNCfoZoVBGESXfzYSElddKpUHx21ReIIm8OREnvKAVZ/ehejOvIuZEUiiU6M5i8jcbxTpfpzucUBhLH4VWB6jYOAnCrVRyN0YnQnfNn56T13+msQKkkscjVlQbyrQPJXIhQtVeAIvYL6+i+NkARpxRu4Nqjl45T8bQhBh/hSsGao2cIk1WtF+AH+UPFjZbcd0iEyG8hLa5CqumtE/vn9kSzozyDASk/Vg9fbdohOIbOoQaqTI2+5uBRFSlmBzBbCn4CwBqk+OLdQnESw4p/Xv0dhDVJ9MEItSEQv5dNLIw6Uvw6hlTjWs1j6NBx5sfv3IURBZFUU4a5UOMW8s+Xfh9ATDWoYL1Igf988RG6MfCGH2PIRv6hWA0J1z39WVyrkvFaPNhAKsNJTgkV6+JlDzev5Sg1SiXSNqJN0wR5+7AaFjl7Nr5o+NmrjVRypyOtbm9TT8raINURt72KtTPhPRt68/1vpW0VXKhyjJO8nf7JUH51b8DQ/rX4di9kYWYvN4L8Qoeb3NL2qIRYkv0FK/k6EqkbSsOolS60npPaSeqT6BITI76lWpwRiM3tGMAzk70WY1/sftlPaGiMjXXSCqhmheiIvVZQVv416WVANn68xWcdB3nx9XnGyVKJdI/bYF/VnEGWlOeDq7ote2Giy4dxA7ltv3dfydKk+OmrjrBQ3nSfocqfOvWmy1rCvIn3Wi10iyEokatvX+R+NvBesAGKI0E2nxUzeO8s0KbWH02cPIxK+xbDIiLOqlOpzEBKA2OfvEPzZsbNW1mKd+f3IAg6z8asDOP9+hArxwrde6mL+Gk4VW/nzweN8HDuqIcnqiyJUFC+IevM0cnyIxpMgurkYj+9i18NYntUXRagQ7CWz18f5gl7TKHHVI1l9UYTAStPyO/VhkCQ+LD8b27j/KwiXZHgKqYnVF9jF+HhW4l0jROstvhoria4Ri8FdPRKJS78Cq8/ILT6W1TfCb4TfCD+f1f8XwoJ1WZXhVb7EfxYrya4RIncqvhqr/4Oobd+qPzzy/rOsvhF+I/xG+PmsvhF+I/z6CP8LkMGnSaras94AAAAASUVORK5CYII=;" vertex="1" parent="1">
          <mxGeometry x="321" y="480" width="80" height="80" as="geometry" />
        </mxCell>
      </root>
    </mxGraphModel>
  </diagram>
</mxfile>
